<svg version="1.1" xmlns="http://www.w3.org/2000/svg" xmlns:xlink="http://www.w3.org/1999/xlink" width="827" height="760"><defs/><g><g transform="translate(-54,-70) scale(1,1)"><path fill="#ffffff" stroke="none" d="M 630.6666666666666 80 L 816.3333333333334 80 Q 871 80 871 134.66666666666666 L 871 352.3333333333333 Q 871 407 816.3333333333334 407 L 630.6666666666666 407 Q 576 407 576 352.3333333333333 L 576 134.66666666666666 Q 576 80 630.6666666666666 80 Z"/></g><g transform="translate(-54,-70) scale(1,1)"><path fill="none" stroke="#000000" d="M 630.6666666666666 80 L 816.3333333333334 80 Q 871 80 871 134.66666666666666 L 871 352.3333333333333 Q 871 407 816.3333333333334 407 L 630.6666666666666 407 Q 576 407 576 352.3333333333333 L 576 134.66666666666666 Q 576 80 630.6666666666666 80 Z" stroke-miterlimit="10"/></g><g transform="translate(-54,-70) scale(1,1)"><path fill="#ffffff" stroke="none" d="M 120 88 L 151 88 Q 207 88 207 144 L 207 367 Q 207 423 151 423 L 120 423 Q 64 423 64 367 L 64 144 Q 64 88 120 88 Z"/></g><g transform="translate(-54,-70) scale(1,1)"><path fill="none" stroke="#000000" d="M 120 88 L 151 88 Q 207 88 207 144 L 207 367 Q 207 423 151 423 L 120 423 Q 64 423 64 367 L 64 144 Q 64 88 120 88 Z" stroke-miterlimit="10"/></g><g transform="translate(-54,-70) scale(1,1)"><rect fill="#C0C0C0" stroke="none" x="111" y="143" width="55.95361328125" height="44" opacity="0.2"/></g><g transform="translate(-54,-70) scale(1,1)"><rect fill="#ffffff" stroke="none" x="104" y="136" width="55.95361328125" height="44"/></g><g transform="translate(-54,-70) scale(1,1)"><path fill="none" stroke="#000000" d="M 104 136 L 159.95361328125 136 L 159.95361328125 180 L 104 180 L 104 136 Z Z" stroke-miterlimit="10"/></g><g transform="translate(-54,-70) scale(1,1)"><path fill="none" stroke="#000000" d="M 104 161 L 159.95361328125 161" stroke-miterlimit="10"/></g><g transform="translate(-54,-70) scale(1,1)"><path fill="none" stroke="#000000" d="M 104 171 L 159.95361328125 171" stroke-miterlimit="10"/></g><g transform="translate(-54,-70) scale(1,1)"><g><path fill="none" stroke="none"/><text fill="#000000" stroke="none" font-family="Arial" font-size="13px" font-style="normal" font-weight="bold" text-decoration="none" x="110.29638671875" y="155.5">Subject</text></g></g><g transform="translate(-54,-70) scale(1,1)"><rect fill="#C0C0C0" stroke="none" x="103" y="335" width="79.8017578125" height="44" opacity="0.2"/></g><g transform="translate(-54,-70) scale(1,1)"><rect fill="#ffffff" stroke="none" x="96" y="328" width="79.8017578125" height="44"/></g><g transform="translate(-54,-70) scale(1,1)"><path fill="none" stroke="#000000" d="M 96 328 L 175.8017578125 328 L 175.8017578125 372 L 96 372 L 96 328 Z Z" stroke-miterlimit="10"/></g><g transform="translate(-54,-70) scale(1,1)"><path fill="none" stroke="#000000" d="M 96 353 L 175.8017578125 353" stroke-miterlimit="10"/></g><g transform="translate(-54,-70) scale(1,1)"><path fill="none" stroke="#000000" d="M 96 363 L 175.8017578125 363" stroke-miterlimit="10"/></g><g transform="translate(-54,-70) scale(1,1)"><g><path fill="none" stroke="none"/><text fill="#000000" stroke="none" font-family="Arial" font-size="13px" font-style="normal" font-weight="bold" text-decoration="none" x="103.023193359375" y="347.5">Credentials</text></g></g><g transform="translate(-54,-70) scale(1,1)"><path fill="none" stroke="#000000" d="M 131 181 L 135 327" stroke-miterlimit="10"/></g><g transform="translate(-54,-70) scale(1,1)"><path fill="#FFFFFF" stroke="none" d="M 135.48626380305902 191.04357690712638 L 131 181 L 127.0703862189371 191.27414889573245 L 131.6025136421012 202.99174793669394"/></g><g transform="translate(-54,-70) scale(1,1)"><path fill="none" stroke="#000000" d="M 135.48626380305902 191.04357690712638 L 131 181 L 127.0703862189371 191.27414889573245 L 131.6025136421012 202.99174793669394 L 135.48626380305902 191.04357690712638" stroke-miterlimit="10"/></g><g transform="translate(-54,-70) scale(1,1)"><rect fill="#C0C0C0" stroke="none" x="319" y="231" width="55.2236328125" height="44" opacity="0.2"/></g><g transform="translate(-54,-70) scale(1,1)"><rect fill="#ffffff" stroke="none" x="312" y="224" width="55.2236328125" height="44"/></g><g transform="translate(-54,-70) scale(1,1)"><path fill="none" stroke="#000000" d="M 312 224 L 367.2236328125 224 L 367.2236328125 268 L 312 268 L 312 224 Z Z" stroke-miterlimit="10"/></g><g transform="translate(-54,-70) scale(1,1)"><path fill="none" stroke="#000000" d="M 312 249 L 367.2236328125 249" stroke-miterlimit="10"/></g><g transform="translate(-54,-70) scale(1,1)"><path fill="none" stroke="#000000" d="M 312 259 L 367.2236328125 259" stroke-miterlimit="10"/></g><g transform="translate(-54,-70) scale(1,1)"><g><path fill="none" stroke="none"/><text fill="#000000" stroke="none" font-family="Arial" font-size="13px" font-style="normal" font-weight="bold" text-decoration="none" x="318.655029296875" y="243.5">Identity</text></g></g><g transform="translate(-54,-70) scale(1,1)"><rect fill="#C0C0C0" stroke="none" x="631" y="127" width="111.58447265625" height="44" opacity="0.2"/></g><g transform="translate(-54,-70) scale(1,1)"><rect fill="#ffffff" stroke="none" x="624" y="120" width="111.58447265625" height="44"/></g><g transform="translate(-54,-70) scale(1,1)"><path fill="none" stroke="#000000" d="M 624 120 L 735.58447265625 120 L 735.58447265625 164 L 624 164 L 624 120 Z Z" stroke-miterlimit="10"/></g><g transform="translate(-54,-70) scale(1,1)"><path fill="none" stroke="#000000" d="M 624 145 L 735.58447265625 145" stroke-miterlimit="10"/></g><g transform="translate(-54,-70) scale(1,1)"><path fill="none" stroke="#000000" d="M 624 155 L 735.58447265625 155" stroke-miterlimit="10"/></g><g transform="translate(-54,-70) scale(1,1)"><g><path fill="none" stroke="none"/><text fill="#000000" stroke="none" font-family="Arial" font-size="13px" font-style="normal" font-weight="bold" text-decoration="none" x="632.108642578125" y="139.5">Security Domain</text></g></g><g transform="translate(-54,-70) scale(1,1)"><rect fill="#C0C0C0" stroke="none" x="788.58447265625" y="127" width="68.2490234375" height="44" opacity="0.2"/></g><g transform="translate(-54,-70) scale(1,1)"><rect fill="#ffffff" stroke="none" x="781.58447265625" y="120" width="68.2490234375" height="44"/></g><g transform="translate(-54,-70) scale(1,1)"><path fill="none" stroke="#000000" d="M 781.58447265625 120 L 849.83349609375 120 L 849.83349609375 164 L 781.58447265625 164 L 781.58447265625 120 Z Z" stroke-miterlimit="10"/></g><g transform="translate(-54,-70) scale(1,1)"><path fill="none" stroke="#000000" d="M 781.58447265625 145 L 849.83349609375 145" stroke-miterlimit="10"/></g><g transform="translate(-54,-70) scale(1,1)"><path fill="none" stroke="#000000" d="M 781.58447265625 155 L 849.83349609375 155" stroke-miterlimit="10"/></g><g transform="translate(-54,-70) scale(1,1)"><g><path fill="none" stroke="none"/><text fill="#000000" stroke="none" font-family="Arial" font-size="13px" font-style="normal" font-weight="bold" text-decoration="none" x="787.890380859375" y="139.5">Resource</text></g></g><g transform="translate(-54,-70) scale(1,1)"><path fill="none" stroke="#000000" d="M 737 142 L 781 142" stroke-miterlimit="10"/></g><g transform="translate(-54,-70) scale(1,1)"><path fill="#FFFFFF" stroke="none" d="M 747.1626748576241 137.790482243984 L 737 142 L 747.1626748576241 146.209517756016 L 759 142"/></g><g transform="translate(-54,-70) scale(1,1)"><path fill="none" stroke="#000000" d="M 747.1626748576241 137.790482243984 L 737 142 L 747.1626748576241 146.209517756016 L 759 142 L 747.1626748576241 137.790482243984" stroke-miterlimit="10"/></g><g transform="translate(-54,-70) scale(1,1)"><g><path fill="none" stroke="none"/><text fill="#000000" stroke="none" font-family="Arial" font-size="13px" font-style="normal" font-weight="normal" text-decoration="none" x="749" y="161">1..*</text></g></g><g transform="translate(-54,-70) scale(1,1)"><rect fill="#C0C0C0" stroke="none" x="631" y="231" width="111.578125" height="44" opacity="0.2"/></g><g transform="translate(-54,-70) scale(1,1)"><rect fill="#ffffff" stroke="none" x="624" y="224" width="111.578125" height="44"/></g><g transform="translate(-54,-70) scale(1,1)"><path fill="none" stroke="#000000" d="M 624 224 L 735.578125 224 L 735.578125 268 L 624 268 L 624 224 Z Z" stroke-miterlimit="10"/></g><g transform="translate(-54,-70) scale(1,1)"><path fill="none" stroke="#000000" d="M 624 249 L 735.578125 249" stroke-miterlimit="10"/></g><g transform="translate(-54,-70) scale(1,1)"><path fill="none" stroke="#000000" d="M 624 259 L 735.578125 259" stroke-miterlimit="10"/></g><g transform="translate(-54,-70) scale(1,1)"><g><path fill="none" stroke="none"/><text fill="#000000" stroke="none" font-family="Arial" font-size="13px" font-style="normal" font-weight="bold" text-decoration="none" x="632.82275390625" y="243.5">Identity Provider</text></g></g><g transform="translate(-54,-70) scale(1,1)"><path fill="none" stroke="#000000" d="M 679 165 L 679 223" stroke-miterlimit="10"/></g><g transform="translate(-54,-70) scale(1,1)"><path fill="#FFFFFF" stroke="none" d="M 683.209517756016 175.16267485762415 L 679 165 L 674.790482243984 175.16267485762415 L 679 187"/></g><g transform="translate(-54,-70) scale(1,1)"><path fill="none" stroke="#000000" d="M 683.209517756016 175.16267485762415 L 679 165 L 674.790482243984 175.16267485762415 L 679 187 L 683.209517756016 175.16267485762415" stroke-miterlimit="10"/></g><g transform="translate(-54,-70) scale(1,1)"><g><path fill="none" stroke="none"/><text fill="#000000" stroke="none" font-family="Arial" font-size="13px" font-style="normal" font-weight="normal" text-decoration="none" x="663" y="208">1</text></g></g><g transform="translate(-54,-70) scale(1,1)"><path fill="none" stroke="#000000" d="M 177 350 L 816 352 L 815 165" stroke-miterlimit="10"/></g><g transform="translate(-54,-70) scale(1,1)"><g><path fill="none" stroke="none"/><text fill="#000000" stroke="none" font-family="Arial" font-size="13px" font-style="normal" font-weight="normal" text-decoration="none" x="454" y="372">+consumes</text></g></g><g transform="translate(-54,-70) scale(1,1)"><g><path fill="none" stroke="none"/><text fill="#000000" stroke="none" font-family="Arial" font-size="13px" font-style="normal" font-weight="normal" text-decoration="none" x="196" y="369">*</text></g></g><g transform="translate(-54,-70) scale(1,1)"><g><path fill="none" stroke="none"/><text fill="#000000" stroke="none" font-family="Arial" font-size="13px" font-style="normal" font-weight="normal" text-decoration="none" x="824" y="193">1</text></g></g><g transform="translate(-54,-70) scale(1,1)"><path fill="none" stroke="#000000" d="M 737 247 L 784 248 L 808 165" stroke-miterlimit="10"/></g><g transform="translate(-54,-70) scale(1,1)"><g><path fill="none" stroke="none"/><text fill="#000000" stroke="none" font-family="Arial" font-size="13px" font-style="normal" font-weight="normal" text-decoration="none" x="750" y="250">+trusts</text></g></g><g transform="translate(-54,-70) scale(1,1)"><g><path fill="none" stroke="none"/><text fill="#000000" stroke="none" font-family="Arial" font-size="13px" font-style="normal" font-weight="normal" text-decoration="none" x="755" y="266">1</text></g></g><g transform="translate(-54,-70) scale(1,1)"><g><path fill="none" stroke="none"/><text fill="#000000" stroke="none" font-family="Arial" font-size="13px" font-style="normal" font-weight="normal" text-decoration="none" x="811" y="196">*</text></g></g><g transform="translate(-54,-70) scale(1,1)"><path fill="none" stroke="#000000" d="M 176 342 L 672 342 M 672 342 A 8 8 0 0 0 680 334 L 680 268" stroke-miterlimit="10"/></g><g transform="translate(-54,-70) scale(1,1)"><g><path fill="none" stroke="none"/><text fill="#000000" stroke="none" font-family="Arial" font-size="13px" font-style="normal" font-weight="normal" text-decoration="none" x="462" y="333">+issues</text></g></g><g transform="translate(-54,-70) scale(1,1)"><g><path fill="none" stroke="none"/><text fill="#000000" stroke="none" font-family="Arial" font-size="13px" font-style="normal" font-weight="normal" text-decoration="none" x="195" y="361">*</text></g></g><g transform="translate(-54,-70) scale(1,1)"><g><path fill="none" stroke="none"/><text fill="#000000" stroke="none" font-family="Arial" font-size="13px" font-style="normal" font-weight="normal" text-decoration="none" x="689" y="296">1</text></g></g><g transform="translate(-54,-70) scale(1,1)"><path fill="none" stroke="#000000" d="M 368 246 L 623 246" stroke-miterlimit="10"/></g><g transform="translate(-54,-70) scale(1,1)"><g><path fill="none" stroke="none"/><text fill="#000000" stroke="none" font-family="Arial" font-size="13px" font-style="normal" font-weight="normal" text-decoration="none" x="465" y="238">+manages</text></g></g><g transform="translate(-54,-70) scale(1,1)"><g><path fill="none" stroke="none"/><text fill="#000000" stroke="none" font-family="Arial" font-size="13px" font-style="normal" font-weight="normal" text-decoration="none" x="387" y="265">*</text></g></g><g transform="translate(-54,-70) scale(1,1)"><g><path fill="none" stroke="none"/><text fill="#000000" stroke="none" font-family="Arial" font-size="13px" font-style="normal" font-weight="normal" text-decoration="none" x="598" y="265">1</text></g></g><g transform="translate(-54,-70) scale(1,1)"><path fill="none" stroke="#000000" d="M 161 157 L 623 144" stroke-miterlimit="10"/></g><g transform="translate(-54,-70) scale(1,1)"><g><path fill="none" stroke="none"/><text fill="#000000" stroke="none" font-family="Arial" font-size="13px" font-style="normal" font-weight="normal" text-decoration="none" x="335" y="142">+Authorization Rule</text></g></g><g transform="translate(-54,-70) scale(1,1)"><g><path fill="none" stroke="none"/><text fill="#000000" stroke="none" font-family="Arial" font-size="13px" font-style="normal" font-weight="normal" text-decoration="none" x="180" y="175">*</text></g></g><g transform="translate(-54,-70) scale(1,1)"><g><path fill="none" stroke="none"/><text fill="#000000" stroke="none" font-family="Arial" font-size="13px" font-style="normal" font-weight="normal" text-decoration="none" x="599" y="164">*</text></g></g><g transform="translate(-54,-70) scale(1,1)"><g><path fill="none" stroke="none"/><text fill="#000000" stroke="none" font-family="Arial" font-size="13px" font-style="normal" font-weight="normal" text-decoration="none" x="653" y="106">Circle of Trust Pattern</text></g></g><g transform="translate(-54,-70) scale(1,1)"><g><path fill="none" stroke="none"/><text fill="#000000" stroke="none" font-family="Arial" font-size="13px" font-style="normal" font-weight="normal" text-decoration="none" x="69" y="114">Credential Pattern</text></g></g><g transform="translate(-54,-70) scale(1,1)"><rect fill="#C0C0C0" stroke="none" x="327" y="415" width="89.20263671875" height="44" opacity="0.2"/></g><g transform="translate(-54,-70) scale(1,1)"><rect fill="#ffffff" stroke="none" x="320" y="408" width="89.20263671875" height="44"/></g><g transform="translate(-54,-70) scale(1,1)"><path fill="none" stroke="#000000" d="M 320 408 L 409.20263671875 408 L 409.20263671875 452 L 320 452 L 320 408 Z Z" stroke-miterlimit="10"/></g><g transform="translate(-54,-70) scale(1,1)"><path fill="none" stroke="#000000" d="M 320 433 L 409.20263671875 433" stroke-miterlimit="10"/></g><g transform="translate(-54,-70) scale(1,1)"><path fill="none" stroke="#000000" d="M 320 443 L 409.20263671875 443" stroke-miterlimit="10"/></g><g transform="translate(-54,-70) scale(1,1)"><g><path fill="none" stroke="none"/><text fill="#000000" stroke="none" font-family="Arial" font-size="13px" font-style="normal" font-weight="bold" text-decoration="none" x="327.75" y="427.5">Logs Access</text></g></g><g transform="translate(-54,-70) scale(1,1)"><path fill="none" stroke="#000000" d="M 815 164 L 815 416 M 815 416 A 8 8 0 0 1 807 424 L 409 424" stroke-miterlimit="10"/></g><g transform="translate(-54,-70) scale(1,1)"><g><path fill="none" stroke="none"/><text fill="#000000" stroke="none" font-family="Arial" font-size="13px" font-style="normal" font-weight="normal" text-decoration="none" x="799" y="192">1</text></g></g><g transform="translate(-54,-70) scale(1,1)"><g><path fill="none" stroke="none"/><text fill="#000000" stroke="none" font-family="Arial" font-size="13px" font-style="normal" font-weight="normal" text-decoration="none" x="428" y="418">*</text></g></g><g transform="translate(-54,-70) scale(1,1)"><path fill="none" stroke="#000000" d="M 127 372 L 127 408 M 127 408 A 8 8 0 0 0 135 416 L 320 416" stroke-miterlimit="10"/></g><g transform="translate(-54,-70) scale(1,1)"><rect fill="#C0C0C0" stroke="none" x="303" y="495" width="144.12890625" height="44" opacity="0.2"/></g><g transform="translate(-54,-70) scale(1,1)"><rect fill="#ffffff" stroke="none" x="296" y="488" width="144.12890625" height="44"/></g><g transform="translate(-54,-70) scale(1,1)"><path fill="none" stroke="#000000" d="M 296 488 L 440.12890625 488 L 440.12890625 532 L 296 532 L 296 488 Z Z" stroke-miterlimit="10"/></g><g transform="translate(-54,-70) scale(1,1)"><path fill="none" stroke="#000000" d="M 296 513 L 440.12890625 513" stroke-miterlimit="10"/></g><g transform="translate(-54,-70) scale(1,1)"><path fill="none" stroke="#000000" d="M 296 523 L 440.12890625 523" stroke-miterlimit="10"/></g><g transform="translate(-54,-70) scale(1,1)"><g><path fill="none" stroke="none"/><text fill="#000000" stroke="none" font-family="Arial" font-size="13px" font-style="normal" font-weight="bold" text-decoration="none" x="304.486328125" y="507.5">SLA Access Parametr</text></g></g><g transform="translate(-54,-70) scale(1,1)"><path fill="none" stroke="#000000" d="M 365 452 L 365 488" stroke-miterlimit="10"/></g><g transform="translate(-54,-70) scale(1,1)"><g><path fill="none" stroke="none"/><text fill="#000000" stroke="none" font-family="Arial" font-size="13px" font-style="normal" font-weight="normal" text-decoration="none" x="350" y="480">*</text></g></g><g transform="translate(-54,-70) scale(1,1)"><g><path fill="none" stroke="none"/><text fill="#000000" stroke="none" font-family="Arial" font-size="13px" font-style="normal" font-weight="normal" text-decoration="none" x="350" y="473">*</text></g></g><g transform="translate(-54,-70) scale(1,1)"><rect fill="#C0C0C0" stroke="none" x="351" y="591" width="50.919921875" height="44" opacity="0.2"/></g><g transform="translate(-54,-70) scale(1,1)"><rect fill="#ffffff" stroke="none" x="344" y="584" width="50.919921875" height="44"/></g><g transform="translate(-54,-70) scale(1,1)"><path fill="none" stroke="#000000" d="M 344 584 L 394.919921875 584 L 394.919921875 628 L 344 628 L 344 584 Z Z" stroke-miterlimit="10"/></g><g transform="translate(-54,-70) scale(1,1)"><path fill="none" stroke="#000000" d="M 344 609 L 394.919921875 609" stroke-miterlimit="10"/></g><g transform="translate(-54,-70) scale(1,1)"><path fill="none" stroke="#000000" d="M 344 619 L 394.919921875 619" stroke-miterlimit="10"/></g><g transform="translate(-54,-70) scale(1,1)"><g><path fill="none" stroke="none"/><text fill="#000000" stroke="none" font-family="Arial" font-size="13px" font-style="normal" font-weight="bold" text-decoration="none" x="351.765869140625" y="603.5">Metric</text></g></g><g transform="translate(-54,-70) scale(1,1)"><path fill="none" stroke="#000000" d="M 368 533 L 369 583" stroke-miterlimit="10"/></g><g transform="translate(-54,-70) scale(1,1)"><g><path fill="none" stroke="none"/><text fill="#000000" stroke="none" font-family="Arial" font-size="13px" font-style="normal" font-weight="normal" text-decoration="none" x="329" y="564">+defined by metric</text></g></g><g transform="translate(-54,-70) scale(1,1)"><rect fill="#C0C0C0" stroke="none" x="423" y="679" width="164.24462890625" height="44" opacity="0.2"/></g><g transform="translate(-54,-70) scale(1,1)"><rect fill="#ffffff" stroke="none" x="416" y="672" width="164.24462890625" height="44"/></g><g transform="translate(-54,-70) scale(1,1)"><path fill="none" stroke="#000000" d="M 416 672 L 580.24462890625 672 L 580.24462890625 716 L 416 716 L 416 672 Z Z" stroke-miterlimit="10"/></g><g transform="translate(-54,-70) scale(1,1)"><path fill="none" stroke="#000000" d="M 416 697 L 580.24462890625 697" stroke-miterlimit="10"/></g><g transform="translate(-54,-70) scale(1,1)"><path fill="none" stroke="#000000" d="M 416 707 L 580.24462890625 707" stroke-miterlimit="10"/></g><g transform="translate(-54,-70) scale(1,1)"><g><path fill="none" stroke="none"/><text fill="#000000" stroke="none" font-family="Arial" font-size="13px" font-style="normal" font-weight="bold" text-decoration="none" x="426.9365234375" y="691.5">Logging Report Function</text></g></g><g transform="translate(-54,-70) scale(1,1)"><rect fill="#C0C0C0" stroke="none" x="167" y="679" width="206.208984375" height="44" opacity="0.2"/></g><g transform="translate(-54,-70) scale(1,1)"><rect fill="#ffffff" stroke="none" x="160" y="672" width="206.208984375" height="44"/></g><g transform="translate(-54,-70) scale(1,1)"><path fill="none" stroke="#000000" d="M 160 672 L 366.208984375 672 L 366.208984375 716 L 160 716 L 160 672 Z Z" stroke-miterlimit="10"/></g><g transform="translate(-54,-70) scale(1,1)"><path fill="none" stroke="#000000" d="M 160 697 L 366.208984375 697" stroke-miterlimit="10"/></g><g transform="translate(-54,-70) scale(1,1)"><path fill="none" stroke="#000000" d="M 160 707 L 366.208984375 707" stroke-miterlimit="10"/></g><g transform="translate(-54,-70) scale(1,1)"><g><path fill="none" stroke="none"/><text fill="#000000" stroke="none" font-family="Arial" font-size="13px" font-style="normal" font-weight="bold" text-decoration="none" x="171.33642578125" y="691.5">Logging Measurement Directive</text></g></g><g transform="translate(-54,-70) scale(1,1)"><path fill="none" stroke="#000000" d="M 396 624 L 464 671" stroke-miterlimit="10"/></g><g transform="translate(-54,-70) scale(1,1)"><g><path fill="none" stroke="none"/><text fill="#000000" stroke="none" font-family="Arial" font-size="13px" font-style="normal" font-weight="normal" text-decoration="none" x="380" y="641">+defined by function</text></g></g><g transform="translate(-54,-70) scale(1,1)"><g><path fill="none" stroke="none"/><text fill="#000000" stroke="none" font-family="Arial" font-size="13px" font-style="normal" font-weight="normal" text-decoration="none" x="403" y="653">1</text></g></g><g transform="translate(-54,-70) scale(1,1)"><g><path fill="none" stroke="none"/><text fill="#000000" stroke="none" font-family="Arial" font-size="13px" font-style="normal" font-weight="normal" text-decoration="none" x="436" y="675">1</text></g></g><g transform="translate(-54,-70) scale(1,1)"><path fill="none" stroke="#000000" d="M 343 628 L 291 671" stroke-miterlimit="10"/></g><g transform="translate(-54,-70) scale(1,1)"><g><path fill="none" stroke="none"/><text fill="#000000" stroke="none" font-family="Arial" font-size="13px" font-style="normal" font-weight="normal" text-decoration="none" x="250" y="667">+Defined by SLA Directive</text></g></g><g transform="translate(-54,-70) scale(1,1)"><g><path fill="none" stroke="none"/><text fill="#000000" stroke="none" font-family="Arial" font-size="13px" font-style="normal" font-weight="normal" text-decoration="none" x="315" y="639">1</text></g></g><g transform="translate(-54,-70) scale(1,1)"><g><path fill="none" stroke="none"/><text fill="#000000" stroke="none" font-family="Arial" font-size="13px" font-style="normal" font-weight="normal" text-decoration="none" x="296" y="654">1</text></g></g><g transform="translate(-54,-70) scale(1,1)"><rect fill="#C0C0C0" stroke="none" x="599" y="767" width="151" height="57" opacity="0.2"/></g><g transform="translate(-54,-70) scale(1,1)"><rect fill="#ffffff" stroke="none" x="592" y="760" width="151" height="57"/></g><g transform="translate(-54,-70) scale(1,1)"><path fill="none" stroke="#000000" d="M 592 760 L 743 760 L 743 817 L 592 817 L 592 760 Z Z" stroke-miterlimit="10"/></g><g transform="translate(-54,-70) scale(1,1)"><path fill="none" stroke="#000000" d="M 592 798 L 743 798" stroke-miterlimit="10"/></g><g transform="translate(-54,-70) scale(1,1)"><path fill="none" stroke="#000000" d="M 592 808 L 743 808" stroke-miterlimit="10"/></g><g transform="translate(-54,-70) scale(1,1)"><g><path fill="none" stroke="none"/><text fill="#000000" stroke="none" font-family="Arial" font-size="13px" font-style="normal" font-weight="normal" text-decoration="none" x="643.286865234375" y="777.5">«signal»</text></g></g><g transform="translate(-54,-70) scale(1,1)"><g><path fill="none" stroke="none"/><text fill="#000000" stroke="none" font-family="Arial" font-size="13px" font-style="normal" font-weight="bold" text-decoration="none" x="612.224609375" y="792.5">Anomalous Access</text></g></g><g transform="translate(-54,-70) scale(1,1)"><rect fill="#C0C0C0" stroke="none" x="431" y="783" width="102.93896484375" height="44" opacity="0.2"/></g><g transform="translate(-54,-70) scale(1,1)"><rect fill="#ffffff" stroke="none" x="424" y="776" width="102.93896484375" height="44"/></g><g transform="translate(-54,-70) scale(1,1)"><path fill="none" stroke="#000000" d="M 424 776 L 526.93896484375 776 L 526.93896484375 820 L 424 820 L 424 776 Z Z" stroke-miterlimit="10"/></g><g transform="translate(-54,-70) scale(1,1)"><path fill="none" stroke="#000000" d="M 424 801 L 526.93896484375 801" stroke-miterlimit="10"/></g><g transform="translate(-54,-70) scale(1,1)"><path fill="none" stroke="#000000" d="M 424 811 L 526.93896484375 811" stroke-miterlimit="10"/></g><g transform="translate(-54,-70) scale(1,1)"><g><path fill="none" stroke="none"/><text fill="#000000" stroke="none" font-family="Arial" font-size="13px" font-style="normal" font-weight="bold" text-decoration="none" x="431.765869140625" y="795.5">Normal Access</text></g></g><g transform="translate(-54,-70) scale(1,1)"><path fill="none" stroke="#000000" d="M 539 717 L 615 759" stroke-miterlimit="10"/></g><g transform="translate(-54,-70) scale(1,1)"><path fill="none" stroke="#000000" d="M 493 717 L 480 775" stroke-miterlimit="10"/></g></g></svg>