<svg version="1.1" xmlns="http://www.w3.org/2000/svg" xmlns:xlink="http://www.w3.org/1999/xlink" width="983.9873046875" height="653"><defs/><g><g transform="translate(-70,-22) scale(1,1)"><rect fill="#C0C0C0" stroke="none" x="543" y="95" width="50.919921875" height="44" opacity="0.2"/></g><g transform="translate(-70,-22) scale(1,1)"><rect fill="#ffffff" stroke="none" x="536" y="88" width="50.919921875" height="44"/></g><g transform="translate(-70,-22) scale(1,1)"><path fill="none" stroke="#000000" d="M 536 88 L 586.919921875 88 L 586.919921875 132 L 536 132 L 536 88 Z Z" stroke-miterlimit="10"/></g><g transform="translate(-70,-22) scale(1,1)"><path fill="none" stroke="#000000" d="M 536 113 L 586.919921875 113" stroke-miterlimit="10"/></g><g transform="translate(-70,-22) scale(1,1)"><path fill="none" stroke="#000000" d="M 536 123 L 586.919921875 123" stroke-miterlimit="10"/></g><g transform="translate(-70,-22) scale(1,1)"><g><path fill="none" stroke="none"/><text fill="#000000" stroke="none" font-family="Arial" font-size="13px" font-style="normal" font-weight="bold" text-decoration="none" x="544.476806640625" y="107.5">Cloud</text></g></g><g transform="translate(-70,-22) scale(1,1)"><rect fill="#C0C0C0" stroke="none" x="831" y="103" width="108.6962890625" height="57" opacity="0.2"/></g><g transform="translate(-70,-22) scale(1,1)"><rect fill="#ffffff" stroke="none" x="824" y="96" width="108.6962890625" height="57"/></g><g transform="translate(-70,-22) scale(1,1)"><path fill="none" stroke="#000000" d="M 824 96 L 932.6962890625 96 L 932.6962890625 153 L 824 153 L 824 96 Z Z" stroke-miterlimit="10"/></g><g transform="translate(-70,-22) scale(1,1)"><path fill="none" stroke="#000000" d="M 824 134 L 932.6962890625 134" stroke-miterlimit="10"/></g><g transform="translate(-70,-22) scale(1,1)"><path fill="none" stroke="#000000" d="M 824 144 L 932.6962890625 144" stroke-miterlimit="10"/></g><g transform="translate(-70,-22) scale(1,1)"><g><path fill="none" stroke="none"/><text fill="#000000" stroke="none" font-family="Arial" font-size="13px" font-style="normal" font-weight="bold" text-decoration="none" x="849.818603515625" y="115.5">IBM Tivoli</text><text fill="#000000" stroke="none" font-family="Arial" font-size="13px" font-style="normal" font-weight="bold" text-decoration="none" x="848" y="128.5">Monitoring</text></g></g><g transform="translate(-70,-22) scale(1,1)"><path fill="none" stroke="#000000" d="M 588 111 L 823 122" stroke-miterlimit="10"/></g><g transform="translate(-70,-22) scale(1,1)"><path fill="#000000" stroke="none" d="M 598.3483854713443 107.27026567481401 L 588 111 L 597.9547339744831 115.68009310775663 L 609.9759381297685 112.02866093373385"/></g><g transform="translate(-70,-22) scale(1,1)"><path fill="none" stroke="#000000" d="M 598.3483854713443 107.27026567481401 L 588 111 L 597.9547339744831 115.68009310775663 L 609.9759381297685 112.02866093373385 L 598.3483854713443 107.27026567481401" stroke-miterlimit="10"/></g><g transform="translate(-70,-22) scale(1,1)"><g><path fill="none" stroke="none"/><text fill="#000000" stroke="none" font-family="Arial" font-size="13px" font-style="normal" font-weight="normal" text-decoration="none" x="606" y="131">1</text></g></g><g transform="translate(-70,-22) scale(1,1)"><g><path fill="none" stroke="none"/><text fill="#000000" stroke="none" font-family="Arial" font-size="13px" font-style="normal" font-weight="normal" text-decoration="none" x="798" y="140">*</text></g></g><g transform="translate(-70,-22) scale(1,1)"><rect fill="#C0C0C0" stroke="none" x="535" y="215" width="53.7890625" height="44" opacity="0.2"/></g><g transform="translate(-70,-22) scale(1,1)"><rect fill="#ffffff" stroke="none" x="528" y="208" width="53.7890625" height="44"/></g><g transform="translate(-70,-22) scale(1,1)"><path fill="none" stroke="#000000" d="M 528 208 L 581.7890625 208 L 581.7890625 252 L 528 252 L 528 208 Z Z" stroke-miterlimit="10"/></g><g transform="translate(-70,-22) scale(1,1)"><path fill="none" stroke="#000000" d="M 528 233 L 581.7890625 233" stroke-miterlimit="10"/></g><g transform="translate(-70,-22) scale(1,1)"><path fill="none" stroke="#000000" d="M 528 243 L 581.7890625 243" stroke-miterlimit="10"/></g><g transform="translate(-70,-22) scale(1,1)"><g><path fill="none" stroke="none"/><text fill="#000000" stroke="none" font-family="Arial" font-size="13px" font-style="normal" font-weight="bold" text-decoration="none" x="534.305908203125" y="227.5">Cluster</text></g></g><g transform="translate(-70,-22) scale(1,1)"><path fill="none" stroke="#000000" d="M 560 133 L 555 207" stroke-miterlimit="10"/></g><g transform="translate(-70,-22) scale(1,1)"><path fill="#000000" stroke="none" d="M 563.5148363971854 143.42333560339594 L 560 133 L 555.1149533634666 142.85577593895547 L 558.5168951241689 154.94995216230063"/></g><g transform="translate(-70,-22) scale(1,1)"><path fill="none" stroke="#000000" d="M 563.5148363971854 143.42333560339594 L 560 133 L 555.1149533634666 142.85577593895547 L 558.5168951241689 154.94995216230063 L 563.5148363971854 143.42333560339594" stroke-miterlimit="10"/></g><g transform="translate(-70,-22) scale(1,1)"><g><path fill="none" stroke="none"/><text fill="#000000" stroke="none" font-family="Arial" font-size="13px" font-style="normal" font-weight="normal" text-decoration="none" x="543" y="160">1</text></g></g><g transform="translate(-70,-22) scale(1,1)"><g><path fill="none" stroke="none"/><text fill="#000000" stroke="none" font-family="Arial" font-size="13px" font-style="normal" font-weight="normal" text-decoration="none" x="541" y="191">*</text></g></g><g transform="translate(-70,-22) scale(1,1)"><rect fill="#C0C0C0" stroke="none" x="191" y="207" width="95.6962890625" height="57" opacity="0.2"/></g><g transform="translate(-70,-22) scale(1,1)"><rect fill="#ffffff" stroke="none" x="184" y="200" width="95.6962890625" height="57"/></g><g transform="translate(-70,-22) scale(1,1)"><path fill="none" stroke="#000000" d="M 184 200 L 279.6962890625 200 L 279.6962890625 257 L 184 257 L 184 200 Z Z" stroke-miterlimit="10"/></g><g transform="translate(-70,-22) scale(1,1)"><path fill="none" stroke="#000000" d="M 184 238 L 279.6962890625 238" stroke-miterlimit="10"/></g><g transform="translate(-70,-22) scale(1,1)"><path fill="none" stroke="#000000" d="M 184 248 L 279.6962890625 248" stroke-miterlimit="10"/></g><g transform="translate(-70,-22) scale(1,1)"><g><path fill="none" stroke="none"/><text fill="#000000" stroke="none" font-family="Arial" font-size="13px" font-style="normal" font-weight="bold" text-decoration="none" x="214.864990234375" y="219.5">Cloud</text><text fill="#000000" stroke="none" font-family="Arial" font-size="13px" font-style="normal" font-weight="bold" text-decoration="none" x="210.174072265625" y="232.5">Service</text></g></g><g transform="translate(-70,-22) scale(1,1)"><path fill="none" stroke="#000000" d="M 535 119 L 281 210" stroke-miterlimit="10"/></g><g transform="translate(-70,-22) scale(1,1)"><path fill="#000000" stroke="none" d="M 526.8525633501652 126.39048550752445 L 535 119 L 524.0130298769826 118.46475471424544 L 514.2890673518428 126.42005854717443"/></g><g transform="translate(-70,-22) scale(1,1)"><path fill="none" stroke="#000000" d="M 526.8525633501652 126.39048550752445 L 535 119 L 524.0130298769826 118.46475471424544 L 514.2890673518428 126.42005854717443 L 526.8525633501652 126.39048550752445" stroke-miterlimit="10"/></g><g transform="translate(-70,-22) scale(1,1)"><g><path fill="none" stroke="none"/><text fill="#000000" stroke="none" font-family="Arial" font-size="13px" font-style="normal" font-weight="normal" text-decoration="none" x="507" y="121">1</text></g></g><g transform="translate(-70,-22) scale(1,1)"><g><path fill="none" stroke="none"/><text fill="#000000" stroke="none" font-family="Arial" font-size="13px" font-style="normal" font-weight="normal" text-decoration="none" x="295" y="197">*</text></g></g><g transform="translate(-70,-22) scale(1,1)"><rect fill="#C0C0C0" stroke="none" x="951" y="183" width="99.9873046875" height="44" opacity="0.2"/></g><g transform="translate(-70,-22) scale(1,1)"><rect fill="#ffffff" stroke="none" x="944" y="176" width="99.9873046875" height="44"/></g><g transform="translate(-70,-22) scale(1,1)"><path fill="none" stroke="#000000" d="M 944 176 L 1043.9873046875 176 L 1043.9873046875 220 L 944 220 L 944 176 Z Z" stroke-miterlimit="10"/></g><g transform="translate(-70,-22) scale(1,1)"><path fill="none" stroke="#000000" d="M 944 201 L 1043.9873046875 201" stroke-miterlimit="10"/></g><g transform="translate(-70,-22) scale(1,1)"><path fill="none" stroke="#000000" d="M 944 211 L 1043.9873046875 211" stroke-miterlimit="10"/></g><g transform="translate(-70,-22) scale(1,1)"><g><path fill="none" stroke="none"/><text fill="#000000" stroke="none" font-family="Arial" font-size="13px" font-style="normal" font-weight="bold" text-decoration="none" x="952.080078125" y="195.5">NonFunctional</text></g></g><g transform="translate(-70,-22) scale(1,1)"><path fill="none" stroke="#000000" d="M 925 154 L 957 175" stroke-miterlimit="10"/></g><g transform="translate(-70,-22) scale(1,1)"><path fill="#000000" stroke="none" d="M 935.8060621156244 156.05645849782297 L 925 154 L 931.1869040508417 163.09517554892037 L 943.3930540384154 166.07044171271008"/></g><g transform="translate(-70,-22) scale(1,1)"><path fill="none" stroke="#000000" d="M 935.8060621156244 156.05645849782297 L 925 154 L 931.1869040508417 163.09517554892037 L 943.3930540384154 166.07044171271008 L 935.8060621156244 156.05645849782297" stroke-miterlimit="10"/></g><g transform="translate(-70,-22) scale(1,1)"><rect fill="#C0C0C0" stroke="none" x="839" y="183" width="81.236328125" height="44" opacity="0.2"/></g><g transform="translate(-70,-22) scale(1,1)"><rect fill="#ffffff" stroke="none" x="832" y="176" width="81.236328125" height="44"/></g><g transform="translate(-70,-22) scale(1,1)"><path fill="none" stroke="#000000" d="M 832 176 L 913.236328125 176 L 913.236328125 220 L 832 220 L 832 176 Z Z" stroke-miterlimit="10"/></g><g transform="translate(-70,-22) scale(1,1)"><path fill="none" stroke="#000000" d="M 832 201 L 913.236328125 201" stroke-miterlimit="10"/></g><g transform="translate(-70,-22) scale(1,1)"><path fill="none" stroke="#000000" d="M 832 211 L 913.236328125 211" stroke-miterlimit="10"/></g><g transform="translate(-70,-22) scale(1,1)"><g><path fill="none" stroke="none"/><text fill="#000000" stroke="none" font-family="Arial" font-size="13px" font-style="normal" font-weight="bold" text-decoration="none" x="839.013671875" y="195.5">Operational</text></g></g><g transform="translate(-70,-22) scale(1,1)"><path fill="none" stroke="#000000" d="M 876 154 L 874 175" stroke-miterlimit="10"/></g><g transform="translate(-70,-22) scale(1,1)"><path fill="#000000" stroke="none" d="M 879.2270418859931 164.51599736905854 L 876 154 L 870.8459301501575 163.7177962513599 L 873.9141999621841 175.90090039706695"/></g><g transform="translate(-70,-22) scale(1,1)"><path fill="none" stroke="#000000" d="M 879.2270418859931 164.51599736905854 L 876 154 L 870.8459301501575 163.7177962513599 L 873.9141999621841 175.90090039706695 L 879.2270418859931 164.51599736905854" stroke-miterlimit="10"/></g><g transform="translate(-70,-22) scale(1,1)"><rect fill="#C0C0C0" stroke="none" x="719" y="183" width="66.8017578125" height="44" opacity="0.2"/></g><g transform="translate(-70,-22) scale(1,1)"><rect fill="#ffffff" stroke="none" x="712" y="176" width="66.8017578125" height="44"/></g><g transform="translate(-70,-22) scale(1,1)"><path fill="none" stroke="#000000" d="M 712 176 L 778.8017578125 176 L 778.8017578125 220 L 712 220 L 712 176 Z Z" stroke-miterlimit="10"/></g><g transform="translate(-70,-22) scale(1,1)"><path fill="none" stroke="#000000" d="M 712 201 L 778.8017578125 201" stroke-miterlimit="10"/></g><g transform="translate(-70,-22) scale(1,1)"><path fill="none" stroke="#000000" d="M 712 211 L 778.8017578125 211" stroke-miterlimit="10"/></g><g transform="translate(-70,-22) scale(1,1)"><g><path fill="none" stroke="none"/><text fill="#000000" stroke="none" font-family="Arial" font-size="13px" font-style="normal" font-weight="bold" text-decoration="none" x="719.0263671875" y="195.5">Business</text></g></g><g transform="translate(-70,-22) scale(1,1)"><path fill="none" stroke="#000000" d="M 824 154 L 780 179" stroke-miterlimit="10"/></g><g transform="translate(-70,-22) scale(1,1)"><path fill="#000000" stroke="none" d="M 817.2435370773593 162.68044980257253 L 824 154 L 813.0844543314169 155.36046416971377 L 804.8719557373591 164.8682069674096"/></g><g transform="translate(-70,-22) scale(1,1)"><path fill="none" stroke="#000000" d="M 817.2435370773593 162.68044980257253 L 824 154 L 813.0844543314169 155.36046416971377 L 804.8719557373591 164.8682069674096 L 817.2435370773593 162.68044980257253" stroke-miterlimit="10"/></g><g transform="translate(-70,-22) scale(1,1)"><rect fill="#C0C0C0" stroke="none" x="535" y="343" width="50.919921875" height="44" opacity="0.2"/></g><g transform="translate(-70,-22) scale(1,1)"><rect fill="#ffffff" stroke="none" x="528" y="336" width="50.919921875" height="44"/></g><g transform="translate(-70,-22) scale(1,1)"><path fill="none" stroke="#000000" d="M 528 336 L 578.919921875 336 L 578.919921875 380 L 528 380 L 528 336 Z Z" stroke-miterlimit="10"/></g><g transform="translate(-70,-22) scale(1,1)"><path fill="none" stroke="#000000" d="M 528 361 L 578.919921875 361" stroke-miterlimit="10"/></g><g transform="translate(-70,-22) scale(1,1)"><path fill="none" stroke="#000000" d="M 528 371 L 578.919921875 371" stroke-miterlimit="10"/></g><g transform="translate(-70,-22) scale(1,1)"><g><path fill="none" stroke="none"/><text fill="#000000" stroke="none" font-family="Arial" font-size="13px" font-style="normal" font-weight="bold" text-decoration="none" x="537.9208984375" y="355.5">Node</text></g></g><g transform="translate(-70,-22) scale(1,1)"><path fill="none" stroke="#000000" d="M 554 253 L 553 335" stroke-miterlimit="10"/></g><g transform="translate(-70,-22) scale(1,1)"><path fill="#000000" stroke="none" d="M 558.0852789246883 263.2132510058011 L 554 253 L 549.6668693865233 263.1105874748479 L 553.7317272652261 274.9983642514569"/></g><g transform="translate(-70,-22) scale(1,1)"><path fill="none" stroke="#000000" d="M 558.0852789246883 263.2132510058011 L 554 253 L 549.6668693865233 263.1105874748479 L 553.7317272652261 274.9983642514569 L 558.0852789246883 263.2132510058011" stroke-miterlimit="10"/></g><g transform="translate(-70,-22) scale(1,1)"><g><path fill="none" stroke="none"/><text fill="#000000" stroke="none" font-family="Arial" font-size="13px" font-style="normal" font-weight="normal" text-decoration="none" x="538" y="281">1</text></g></g><g transform="translate(-70,-22) scale(1,1)"><g><path fill="none" stroke="none"/><text fill="#000000" stroke="none" font-family="Arial" font-size="13px" font-style="normal" font-weight="normal" text-decoration="none" x="538" y="320">*</text></g></g><g transform="translate(-70,-22) scale(1,1)"><rect fill="#C0C0C0" stroke="none" x="791" y="431" width="68.2490234375" height="44" opacity="0.2"/></g><g transform="translate(-70,-22) scale(1,1)"><rect fill="#ffffff" stroke="none" x="784" y="424" width="68.2490234375" height="44"/></g><g transform="translate(-70,-22) scale(1,1)"><path fill="none" stroke="#000000" d="M 784 424 L 852.2490234375 424 L 852.2490234375 468 L 784 468 L 784 424 Z Z" stroke-miterlimit="10"/></g><g transform="translate(-70,-22) scale(1,1)"><path fill="none" stroke="#000000" d="M 784 449 L 852.2490234375 449" stroke-miterlimit="10"/></g><g transform="translate(-70,-22) scale(1,1)"><path fill="none" stroke="#000000" d="M 784 459 L 852.2490234375 459" stroke-miterlimit="10"/></g><g transform="translate(-70,-22) scale(1,1)"><g><path fill="none" stroke="none"/><text fill="#000000" stroke="none" font-family="Arial" font-size="13px" font-style="normal" font-weight="bold" text-decoration="none" x="789.947265625" y="443.5">Hardware</text></g></g><g transform="translate(-70,-22) scale(1,1)"><path fill="none" stroke="#000000" d="M 553 380 L 553 434 L 784 434" stroke-miterlimit="10"/></g><g transform="translate(-70,-22) scale(1,1)"><path fill="#000000" stroke="none" d="M 557.209517756016 390.16267485762415 L 553 380 L 548.790482243984 390.16267485762415 L 553 402"/></g><g transform="translate(-70,-22) scale(1,1)"><path fill="none" stroke="#000000" d="M 557.209517756016 390.16267485762415 L 553 380 L 548.790482243984 390.16267485762415 L 553 402 L 557.209517756016 390.16267485762415" stroke-miterlimit="10"/></g><g transform="translate(-70,-22) scale(1,1)"><g><path fill="none" stroke="none"/><text fill="#000000" stroke="none" font-family="Arial" font-size="13px" font-style="normal" font-weight="normal" text-decoration="none" x="537" y="408">1</text></g></g><g transform="translate(-70,-22) scale(1,1)"><g><path fill="none" stroke="none"/><text fill="#000000" stroke="none" font-family="Arial" font-size="13px" font-style="normal" font-weight="normal" text-decoration="none" x="760" y="453">*</text></g></g><g transform="translate(-70,-22) scale(1,1)"><rect fill="#C0C0C0" stroke="none" x="639" y="455" width="50.919921875" height="44" opacity="0.2"/></g><g transform="translate(-70,-22) scale(1,1)"><rect fill="#ffffff" stroke="none" x="632" y="448" width="50.919921875" height="44"/></g><g transform="translate(-70,-22) scale(1,1)"><path fill="none" stroke="#000000" d="M 632 448 L 682.919921875 448 L 682.919921875 492 L 632 492 L 632 448 Z Z" stroke-miterlimit="10"/></g><g transform="translate(-70,-22) scale(1,1)"><path fill="none" stroke="#000000" d="M 632 473 L 682.919921875 473" stroke-miterlimit="10"/></g><g transform="translate(-70,-22) scale(1,1)"><path fill="none" stroke="#000000" d="M 632 483 L 682.919921875 483" stroke-miterlimit="10"/></g><g transform="translate(-70,-22) scale(1,1)"><g><path fill="none" stroke="none"/><text fill="#000000" stroke="none" font-family="Arial" font-size="13px" font-style="normal" font-weight="bold" text-decoration="none" x="642.29541015625" y="467.5">VMM</text></g></g><g transform="translate(-70,-22) scale(1,1)"><path fill="none" stroke="#000000" d="M 574 380 L 574 470 L 632 470" stroke-miterlimit="10"/></g><g transform="translate(-70,-22) scale(1,1)"><path fill="#000000" stroke="none" d="M 578.209517756016 390.16267485762415 L 574 380 L 569.790482243984 390.16267485762415 L 574 402"/></g><g transform="translate(-70,-22) scale(1,1)"><path fill="none" stroke="#000000" d="M 578.209517756016 390.16267485762415 L 574 380 L 569.790482243984 390.16267485762415 L 574 402 L 578.209517756016 390.16267485762415" stroke-miterlimit="10"/></g><g transform="translate(-70,-22) scale(1,1)"><g><path fill="none" stroke="none"/><text fill="#000000" stroke="none" font-family="Arial" font-size="13px" font-style="normal" font-weight="normal" text-decoration="none" x="558" y="408">1</text></g></g><g transform="translate(-70,-22) scale(1,1)"><g><path fill="none" stroke="none"/><text fill="#000000" stroke="none" font-family="Arial" font-size="13px" font-style="normal" font-weight="normal" text-decoration="none" x="607" y="489">1</text></g></g><g transform="translate(-70,-22) scale(1,1)"><rect fill="#C0C0C0" stroke="none" x="415" y="423" width="120" height="83" opacity="0.2"/></g><g transform="translate(-70,-22) scale(1,1)"><rect fill="#ffffff" stroke="none" x="408" y="416" width="120" height="83"/></g><g transform="translate(-70,-22) scale(1,1)"><path fill="none" stroke="#000000" d="M 408 416 L 528 416 L 528 499 L 408 499 L 408 416 Z Z" stroke-miterlimit="10"/></g><g transform="translate(-70,-22) scale(1,1)"><path fill="none" stroke="#000000" d="M 408 480 L 528 480" stroke-miterlimit="10"/></g><g transform="translate(-70,-22) scale(1,1)"><path fill="none" stroke="#000000" d="M 408 490 L 528 490" stroke-miterlimit="10"/></g><g transform="translate(-70,-22) scale(1,1)"><g><path fill="none" stroke="none"/><text fill="#000000" stroke="none" font-family="Arial" font-size="13px" font-style="normal" font-weight="bold" text-decoration="none" x="439.470458984375" y="435.5">IBM Tivoli</text><text fill="#000000" stroke="none" font-family="Arial" font-size="13px" font-style="normal" font-weight="bold" text-decoration="none" x="446.3291015625" y="448.5">System</text><text fill="#000000" stroke="none" font-family="Arial" font-size="13px" font-style="normal" font-weight="bold" text-decoration="none" x="435.119140625" y="461.5">Automation</text><text fill="#000000" stroke="none" font-family="Arial" font-size="13px" font-style="normal" font-weight="bold" text-decoration="none" x="446.325927734375" y="474.5">Monitor</text></g></g><g transform="translate(-70,-22) scale(1,1)"><path fill="none" stroke="#000000" d="M 533 380 L 533 457 L 528 457" stroke-miterlimit="10"/></g><g transform="translate(-70,-22) scale(1,1)"><path fill="#000000" stroke="none" d="M 537.209517756016 390.16267485762415 L 533 380 L 528.790482243984 390.16267485762415 L 533 402"/></g><g transform="translate(-70,-22) scale(1,1)"><path fill="none" stroke="#000000" d="M 537.209517756016 390.16267485762415 L 533 380 L 528.790482243984 390.16267485762415 L 533 402 L 537.209517756016 390.16267485762415" stroke-miterlimit="10"/></g><g transform="translate(-70,-22) scale(1,1)"><g><path fill="none" stroke="none"/><text fill="#000000" stroke="none" font-family="Arial" font-size="13px" font-style="normal" font-weight="normal" text-decoration="none" x="517" y="408">1</text></g></g><g transform="translate(-70,-22) scale(1,1)"><g><path fill="none" stroke="none"/><text fill="#000000" stroke="none" font-family="Arial" font-size="13px" font-style="normal" font-weight="normal" text-decoration="none" x="547" y="451">*</text></g></g><g transform="translate(-70,-22) scale(1,1)"><rect fill="#C0C0C0" stroke="none" x="879" y="543" width="170.09716796875" height="57" opacity="0.2"/></g><g transform="translate(-70,-22) scale(1,1)"><rect fill="#ffffff" stroke="none" x="872" y="536" width="170.09716796875" height="57"/></g><g transform="translate(-70,-22) scale(1,1)"><path fill="none" stroke="#000000" d="M 872 536 L 1042.09716796875 536 L 1042.09716796875 593 L 872 593 L 872 536 Z Z" stroke-miterlimit="10"/></g><g transform="translate(-70,-22) scale(1,1)"><path fill="none" stroke="#000000" d="M 872 574 L 1042.09716796875 574" stroke-miterlimit="10"/></g><g transform="translate(-70,-22) scale(1,1)"><path fill="none" stroke="#000000" d="M 872 584 L 1042.09716796875 584" stroke-miterlimit="10"/></g><g transform="translate(-70,-22) scale(1,1)"><g><path fill="none" stroke="none"/><text fill="#000000" stroke="none" font-family="Arial" font-size="13px" font-style="normal" font-weight="bold" text-decoration="none" x="904.66455078125" y="555.5">IBM Total Storage</text><text fill="#000000" stroke="none" font-family="Arial" font-size="13px" font-style="normal" font-weight="bold" text-decoration="none" x="933.55908203125" y="568.5">DS4800</text></g></g><g transform="translate(-70,-22) scale(1,1)"><path fill="none" stroke="#000000" d="M 845 468 L 845 564 L 872 564" stroke-miterlimit="10"/></g><g transform="translate(-70,-22) scale(1,1)"><path fill="#000000" stroke="none" d="M 849.209517756016 478.16267485762415 L 845 468 L 840.790482243984 478.16267485762415 L 845 490"/></g><g transform="translate(-70,-22) scale(1,1)"><path fill="none" stroke="#000000" d="M 849.209517756016 478.16267485762415 L 845 468 L 840.790482243984 478.16267485762415 L 845 490 L 849.209517756016 478.16267485762415" stroke-miterlimit="10"/></g><g transform="translate(-70,-22) scale(1,1)"><g><path fill="none" stroke="none"/><text fill="#000000" stroke="none" font-family="Arial" font-size="13px" font-style="normal" font-weight="normal" text-decoration="none" x="829" y="496">1</text></g></g><g transform="translate(-70,-22) scale(1,1)"><g><path fill="none" stroke="none"/><text fill="#000000" stroke="none" font-family="Arial" font-size="13px" font-style="normal" font-weight="normal" text-decoration="none" x="848" y="583">*</text></g></g><g transform="translate(-70,-22) scale(1,1)"><rect fill="#C0C0C0" stroke="none" x="727" y="615" width="76.9326171875" height="57" opacity="0.2"/></g><g transform="translate(-70,-22) scale(1,1)"><rect fill="#ffffff" stroke="none" x="720" y="608" width="76.9326171875" height="57"/></g><g transform="translate(-70,-22) scale(1,1)"><path fill="none" stroke="#000000" d="M 720 608 L 796.9326171875 608 L 796.9326171875 665 L 720 665 L 720 608 Z Z" stroke-miterlimit="10"/></g><g transform="translate(-70,-22) scale(1,1)"><path fill="none" stroke="#000000" d="M 720 646 L 796.9326171875 646" stroke-miterlimit="10"/></g><g transform="translate(-70,-22) scale(1,1)"><path fill="none" stroke="#000000" d="M 720 656 L 796.9326171875 656" stroke-miterlimit="10"/></g><g transform="translate(-70,-22) scale(1,1)"><g><path fill="none" stroke="none"/><text fill="#000000" stroke="none" font-family="Arial" font-size="13px" font-style="normal" font-weight="bold" text-decoration="none" x="742.213134765625" y="627.5">Cisco</text><text fill="#000000" stroke="none" font-family="Arial" font-size="13px" font-style="normal" font-weight="bold" text-decoration="none" x="744.00634765625" y="640.5">9134</text></g></g><g transform="translate(-70,-22) scale(1,1)"><path fill="none" stroke="#000000" d="M 811 468 L 811 636 L 797 636" stroke-miterlimit="10"/></g><g transform="translate(-70,-22) scale(1,1)"><path fill="#000000" stroke="none" d="M 815.209517756016 478.16267485762415 L 811 468 L 806.790482243984 478.16267485762415 L 811 490"/></g><g transform="translate(-70,-22) scale(1,1)"><path fill="none" stroke="#000000" d="M 815.209517756016 478.16267485762415 L 811 468 L 806.790482243984 478.16267485762415 L 811 490 L 815.209517756016 478.16267485762415" stroke-miterlimit="10"/></g><g transform="translate(-70,-22) scale(1,1)"><g><path fill="none" stroke="none"/><text fill="#000000" stroke="none" font-family="Arial" font-size="13px" font-style="normal" font-weight="normal" text-decoration="none" x="795" y="496">1</text></g></g><g transform="translate(-70,-22) scale(1,1)"><g><path fill="none" stroke="none"/><text fill="#000000" stroke="none" font-family="Arial" font-size="13px" font-style="normal" font-weight="normal" text-decoration="none" x="816" y="630">*</text></g></g><g transform="translate(-70,-22) scale(1,1)"><rect fill="#C0C0C0" stroke="none" x="663" y="527" width="95.0107421875" height="57" opacity="0.2"/></g><g transform="translate(-70,-22) scale(1,1)"><rect fill="#ffffff" stroke="none" x="656" y="520" width="95.0107421875" height="57"/></g><g transform="translate(-70,-22) scale(1,1)"><path fill="none" stroke="#000000" d="M 656 520 L 751.0107421875 520 L 751.0107421875 577 L 656 577 L 656 520 Z Z" stroke-miterlimit="10"/></g><g transform="translate(-70,-22) scale(1,1)"><path fill="none" stroke="#000000" d="M 656 558 L 751.0107421875 558" stroke-miterlimit="10"/></g><g transform="translate(-70,-22) scale(1,1)"><path fill="none" stroke="#000000" d="M 656 568 L 751.0107421875 568" stroke-miterlimit="10"/></g><g transform="translate(-70,-22) scale(1,1)"><g><path fill="none" stroke="none"/><text fill="#000000" stroke="none" font-family="Arial" font-size="13px" font-style="normal" font-weight="bold" text-decoration="none" x="678.58447265625" y="539.5">xSystem</text><text fill="#000000" stroke="none" font-family="Arial" font-size="13px" font-style="normal" font-weight="bold" text-decoration="none" x="689.04541015625" y="552.5">3550</text></g></g><g transform="translate(-70,-22) scale(1,1)"><path fill="none" stroke="#000000" d="M 792 468 L 792 548 L 751 548" stroke-miterlimit="10"/></g><g transform="translate(-70,-22) scale(1,1)"><path fill="#000000" stroke="none" d="M 796.209517756016 478.16267485762415 L 792 468 L 787.790482243984 478.16267485762415 L 792 490"/></g><g transform="translate(-70,-22) scale(1,1)"><path fill="none" stroke="#000000" d="M 796.209517756016 478.16267485762415 L 792 468 L 787.790482243984 478.16267485762415 L 792 490 L 796.209517756016 478.16267485762415" stroke-miterlimit="10"/></g><g transform="translate(-70,-22) scale(1,1)"><g><path fill="none" stroke="none"/><text fill="#000000" stroke="none" font-family="Arial" font-size="13px" font-style="normal" font-weight="normal" text-decoration="none" x="776" y="496">1</text></g></g><g transform="translate(-70,-22) scale(1,1)"><g><path fill="none" stroke="none"/><text fill="#000000" stroke="none" font-family="Arial" font-size="13px" font-style="normal" font-weight="normal" text-decoration="none" x="770" y="542">*</text></g></g><g transform="translate(-70,-22) scale(1,1)"><path fill="none" stroke="#000000" d="M 528 468 L 632 468" stroke-miterlimit="10"/></g><g transform="translate(-70,-22) scale(1,1)"><path fill="#000000" stroke="none" d="M 621.8373251423759 472.209517756016 L 632 468 L 621.8373251423758 463.790482243984 L 610 468"/></g><g transform="translate(-70,-22) scale(1,1)"><path fill="none" stroke="#000000" d="M 621.8373251423759 472.209517756016 L 632 468 L 621.8373251423758 463.790482243984 L 610 468 L 621.8373251423759 472.209517756016" stroke-miterlimit="10"/></g><g transform="translate(-70,-22) scale(1,1)"><rect fill="#C0C0C0" stroke="none" x="191" y="423" width="132.51904296875" height="57" opacity="0.2"/></g><g transform="translate(-70,-22) scale(1,1)"><rect fill="#ffffff" stroke="none" x="184" y="416" width="132.51904296875" height="57"/></g><g transform="translate(-70,-22) scale(1,1)"><path fill="none" stroke="#000000" d="M 184 416 L 316.51904296875 416 L 316.51904296875 473 L 184 473 L 184 416 Z Z" stroke-miterlimit="10"/></g><g transform="translate(-70,-22) scale(1,1)"><path fill="none" stroke="#000000" d="M 184 454 L 316.51904296875 454" stroke-miterlimit="10"/></g><g transform="translate(-70,-22) scale(1,1)"><path fill="none" stroke="#000000" d="M 184 464 L 316.51904296875 464" stroke-miterlimit="10"/></g><g transform="translate(-70,-22) scale(1,1)"><g><path fill="none" stroke="none"/><text fill="#000000" stroke="none" font-family="Arial" font-size="13px" font-style="normal" font-weight="bold" text-decoration="none" x="231.83544921875" y="435.5">Virtual</text><text fill="#000000" stroke="none" font-family="Arial" font-size="13px" font-style="normal" font-weight="bold" text-decoration="none" x="213.77001953125" y="448.5">Environment</text></g></g><g transform="translate(-70,-22) scale(1,1)"><path fill="none" stroke="#000000" d="M 408 453 L 317 453" stroke-miterlimit="10"/></g><g transform="translate(-70,-22) scale(1,1)"><path fill="#000000" stroke="none" d="M 327.16267485762415 448.790482243984 L 317 453 L 327.16267485762415 457.209517756016 L 339 453"/></g><g transform="translate(-70,-22) scale(1,1)"><path fill="none" stroke="#000000" d="M 327.16267485762415 448.790482243984 L 317 453 L 327.16267485762415 457.209517756016 L 339 453 L 327.16267485762415 448.790482243984" stroke-miterlimit="10"/></g><g transform="translate(-70,-22) scale(1,1)"><g><path fill="none" stroke="none"/><text fill="#000000" stroke="none" font-family="Arial" font-size="13px" font-style="normal" font-weight="normal" text-decoration="none" x="384" y="447">*</text></g></g><g transform="translate(-70,-22) scale(1,1)"><g><path fill="none" stroke="none"/><text fill="#000000" stroke="none" font-family="Arial" font-size="13px" font-style="normal" font-weight="normal" text-decoration="none" x="335" y="447">1</text></g></g><g transform="translate(-70,-22) scale(1,1)"><rect fill="#C0C0C0" stroke="none" x="215" y="311" width="50.919921875" height="44" opacity="0.2"/></g><g transform="translate(-70,-22) scale(1,1)"><rect fill="#ffffff" stroke="none" x="208" y="304" width="50.919921875" height="44"/></g><g transform="translate(-70,-22) scale(1,1)"><path fill="none" stroke="#000000" d="M 208 304 L 258.919921875 304 L 258.919921875 348 L 208 348 L 208 304 Z Z" stroke-miterlimit="10"/></g><g transform="translate(-70,-22) scale(1,1)"><path fill="none" stroke="#000000" d="M 208 329 L 258.919921875 329" stroke-miterlimit="10"/></g><g transform="translate(-70,-22) scale(1,1)"><path fill="none" stroke="#000000" d="M 208 339 L 258.919921875 339" stroke-miterlimit="10"/></g><g transform="translate(-70,-22) scale(1,1)"><g><path fill="none" stroke="none"/><text fill="#000000" stroke="none" font-family="Arial" font-size="13px" font-style="normal" font-weight="bold" text-decoration="none" x="217.55908203125" y="323.5">PaaS</text></g></g><g transform="translate(-70,-22) scale(1,1)"><path fill="none" stroke="#000000" d="M 233 303 L 232 258" stroke-miterlimit="10"/></g><g transform="translate(-70,-22) scale(1,1)"><path fill="#FFFFFF" stroke="none" d="M 240.86852046228356 278.1332894681932 L 232 258 L 224.03460544742126 278.50737646852343"/></g><g transform="translate(-70,-22) scale(1,1)"><path fill="none" stroke="#000000" d="M 240.86852046228356 278.1332894681932 L 232 258 L 224.03460544742126 278.50737646852343 L 240.86852046228356 278.1332894681932" stroke-miterlimit="10"/></g><g transform="translate(-70,-22) scale(1,1)"><rect fill="#C0C0C0" stroke="none" x="327" y="303" width="50.919921875" height="44" opacity="0.2"/></g><g transform="translate(-70,-22) scale(1,1)"><rect fill="#ffffff" stroke="none" x="320" y="296" width="50.919921875" height="44"/></g><g transform="translate(-70,-22) scale(1,1)"><path fill="none" stroke="#000000" d="M 320 296 L 370.919921875 296 L 370.919921875 340 L 320 340 L 320 296 Z Z" stroke-miterlimit="10"/></g><g transform="translate(-70,-22) scale(1,1)"><path fill="none" stroke="#000000" d="M 320 321 L 370.919921875 321" stroke-miterlimit="10"/></g><g transform="translate(-70,-22) scale(1,1)"><path fill="none" stroke="#000000" d="M 320 331 L 370.919921875 331" stroke-miterlimit="10"/></g><g transform="translate(-70,-22) scale(1,1)"><g><path fill="none" stroke="none"/><text fill="#000000" stroke="none" font-family="Arial" font-size="13px" font-style="normal" font-weight="bold" text-decoration="none" x="332.088623046875" y="315.5">IaaS</text></g></g><g transform="translate(-70,-22) scale(1,1)"><path fill="none" stroke="#000000" d="M 319 297 L 269 258" stroke-miterlimit="10"/></g><g transform="translate(-70,-22) scale(1,1)"><path fill="#FFFFFF" stroke="none" d="M 290.204559675324 263.86230747876834 L 269 258 L 279.84861056685867 277.13916531013416"/></g><g transform="translate(-70,-22) scale(1,1)"><path fill="none" stroke="#000000" d="M 290.204559675324 263.86230747876834 L 269 258 L 279.84861056685867 277.13916531013416 L 290.204559675324 263.86230747876834" stroke-miterlimit="10"/></g><g transform="translate(-70,-22) scale(1,1)"><rect fill="#C0C0C0" stroke="none" x="167" y="591" width="173.6962890625" height="57" opacity="0.2"/></g><g transform="translate(-70,-22) scale(1,1)"><rect fill="#ffffff" stroke="none" x="160" y="584" width="173.6962890625" height="57"/></g><g transform="translate(-70,-22) scale(1,1)"><path fill="none" stroke="#000000" d="M 160 584 L 333.6962890625 584 L 333.6962890625 641 L 160 641 L 160 584 Z Z" stroke-miterlimit="10"/></g><g transform="translate(-70,-22) scale(1,1)"><path fill="none" stroke="#000000" d="M 160 622 L 333.6962890625 622" stroke-miterlimit="10"/></g><g transform="translate(-70,-22) scale(1,1)"><path fill="none" stroke="#000000" d="M 160 632 L 333.6962890625 632" stroke-miterlimit="10"/></g><g transform="translate(-70,-22) scale(1,1)"><g><path fill="none" stroke="none"/><text fill="#000000" stroke="none" font-family="Arial" font-size="13px" font-style="normal" font-weight="bold" text-decoration="none" x="208.549560546875" y="603.5">Development</text><text fill="#000000" stroke="none" font-family="Arial" font-size="13px" font-style="normal" font-weight="bold" text-decoration="none" x="210.358642578125" y="616.5">Environment</text></g></g><g transform="translate(-70,-22) scale(1,1)"><path fill="none" stroke="#000000" d="M 247 583 L 249 474" stroke-miterlimit="10"/></g><g transform="translate(-70,-22) scale(1,1)"><path fill="#FFFFFF" stroke="none" d="M 257.0447392101758 494.47638080912395 L 249 474 L 240.209501924103 494.16747737268224"/></g><g transform="translate(-70,-22) scale(1,1)"><path fill="none" stroke="#000000" d="M 257.0447392101758 494.47638080912395 L 249 474 L 240.209501924103 494.16747737268224 L 257.0447392101758 494.47638080912395" stroke-miterlimit="10"/></g><g transform="translate(-70,-22) scale(1,1)"><rect fill="#C0C0C0" stroke="none" x="351" y="527" width="138.2890625" height="57" opacity="0.2"/></g><g transform="translate(-70,-22) scale(1,1)"><rect fill="#ffffff" stroke="none" x="344" y="520" width="138.2890625" height="57"/></g><g transform="translate(-70,-22) scale(1,1)"><path fill="none" stroke="#000000" d="M 344 520 L 482.2890625 520 L 482.2890625 577 L 344 577 L 344 520 Z Z" stroke-miterlimit="10"/></g><g transform="translate(-70,-22) scale(1,1)"><path fill="none" stroke="#000000" d="M 344 558 L 482.2890625 558" stroke-miterlimit="10"/></g><g transform="translate(-70,-22) scale(1,1)"><path fill="none" stroke="#000000" d="M 344 568 L 482.2890625 568" stroke-miterlimit="10"/></g><g transform="translate(-70,-22) scale(1,1)"><g><path fill="none" stroke="none"/><text fill="#000000" stroke="none" font-family="Arial" font-size="13px" font-style="normal" font-weight="bold" text-decoration="none" x="391.8291015625" y="539.5">Testing</text><text fill="#000000" stroke="none" font-family="Arial" font-size="13px" font-style="normal" font-weight="bold" text-decoration="none" x="376.655029296875" y="552.5">Environment</text></g></g><g transform="translate(-70,-22) scale(1,1)"><path fill="none" stroke="#000000" d="M 368 519 L 297 474" stroke-miterlimit="10"/></g><g transform="translate(-70,-22) scale(1,1)"><path fill="#FFFFFF" stroke="none" d="M 318.67460392402023 477.7698202525912 L 297 474 L 309.66059394974565 491.9919248786689"/></g><g transform="translate(-70,-22) scale(1,1)"><path fill="none" stroke="#000000" d="M 318.67460392402023 477.7698202525912 L 297 474 L 309.66059394974565 491.9919248786689 L 318.67460392402023 477.7698202525912" stroke-miterlimit="10"/></g><g transform="translate(-70,-22) scale(1,1)"><path fill="none" stroke="#000000" d="M 236 349 L 246 415" stroke-miterlimit="10"/></g><g transform="translate(-70,-22) scale(1,1)"><g><path fill="none" stroke="none"/><text fill="#000000" stroke="none" font-family="Arial" font-size="13px" font-style="normal" font-weight="normal" text-decoration="none" x="239" y="386">+offer</text></g></g><g transform="translate(-70,-22) scale(1,1)"><g><path fill="none" stroke="none"/><text fill="#000000" stroke="none" font-family="Arial" font-size="13px" font-style="normal" font-weight="normal" text-decoration="none" x="223" y="379">1</text></g></g><g transform="translate(-70,-22) scale(1,1)"><g><path fill="none" stroke="none"/><text fill="#000000" stroke="none" font-family="Arial" font-size="13px" font-style="normal" font-weight="normal" text-decoration="none" x="228" y="402">*</text></g></g><g transform="translate(-70,-22) scale(1,1)"><path fill="none" stroke="#000000" d="M 365 341 L 431 415" stroke-miterlimit="10"/></g><g transform="translate(-70,-22) scale(1,1)"><g><path fill="none" stroke="none"/><text fill="#000000" stroke="none" font-family="Arial" font-size="13px" font-style="normal" font-weight="normal" text-decoration="none" x="393" y="375">+offer</text></g></g><g transform="translate(-70,-22) scale(1,1)"><g><path fill="none" stroke="none"/><text fill="#000000" stroke="none" font-family="Arial" font-size="13px" font-style="normal" font-weight="normal" text-decoration="none" x="367" y="372">1</text></g></g><g transform="translate(-70,-22) scale(1,1)"><g><path fill="none" stroke="none"/><text fill="#000000" stroke="none" font-family="Arial" font-size="13px" font-style="normal" font-weight="normal" text-decoration="none" x="405" y="414">*</text></g></g><g transform="translate(-70,-22) scale(1,1)"><rect fill="#C0C0C0" stroke="none" x="335" y="79" width="50.919921875" height="44" opacity="0.2"/></g><g transform="translate(-70,-22) scale(1,1)"><rect fill="#ffffff" stroke="none" x="328" y="72" width="50.919921875" height="44"/></g><g transform="translate(-70,-22) scale(1,1)"><path fill="none" stroke="#000000" d="M 328 72 L 378.919921875 72 L 378.919921875 116 L 328 116 L 328 72 Z Z" stroke-miterlimit="10"/></g><g transform="translate(-70,-22) scale(1,1)"><path fill="none" stroke="#000000" d="M 328 97 L 378.919921875 97" stroke-miterlimit="10"/></g><g transform="translate(-70,-22) scale(1,1)"><path fill="none" stroke="#000000" d="M 328 107 L 378.919921875 107" stroke-miterlimit="10"/></g><g transform="translate(-70,-22) scale(1,1)"><g><path fill="none" stroke="none"/><text fill="#000000" stroke="none" font-family="Arial" font-size="13px" font-style="normal" font-weight="bold" text-decoration="none" x="336.47998046875" y="91.5">Portal</text></g></g><g transform="translate(-70,-22) scale(1,1)"><path fill="none" stroke="#000000" d="M 380 96 L 535 108" stroke-miterlimit="10"/></g><g transform="translate(-70,-22) scale(1,1)"><g><path fill="none" stroke="none"/><text fill="#000000" stroke="none" font-family="Arial" font-size="13px" font-style="normal" font-weight="normal" text-decoration="none" x="432" y="94">+connect</text></g></g><g transform="translate(-70,-22) scale(1,1)"><g><path fill="none" stroke="none"/><text fill="#000000" stroke="none" font-family="Arial" font-size="32px" font-style="normal" font-weight="normal" text-decoration="none" x="629" y="69">IBM Tivoli Environment</text></g></g><g transform="translate(-70,-22) scale(1,1)"><rect fill="#C0C0C0" stroke="none" x="839" y="615" width="121.71533203125" height="57" opacity="0.2"/></g><g transform="translate(-70,-22) scale(1,1)"><rect fill="#ffffff" stroke="none" x="832" y="608" width="121.71533203125" height="57"/></g><g transform="translate(-70,-22) scale(1,1)"><path fill="none" stroke="#000000" d="M 832 608 L 953.71533203125 608 L 953.71533203125 665 L 832 665 L 832 608 Z Z" stroke-miterlimit="10"/></g><g transform="translate(-70,-22) scale(1,1)"><path fill="none" stroke="#000000" d="M 832 646 L 953.71533203125 646" stroke-miterlimit="10"/></g><g transform="translate(-70,-22) scale(1,1)"><path fill="none" stroke="#000000" d="M 832 656 L 953.71533203125 656" stroke-miterlimit="10"/></g><g transform="translate(-70,-22) scale(1,1)"><g><path fill="none" stroke="none"/><text fill="#000000" stroke="none" font-family="Arial" font-size="13px" font-style="normal" font-weight="bold" text-decoration="none" x="854.197265625" y="627.5">xSwitch 3850</text><text fill="#000000" stroke="none" font-family="Arial" font-size="13px" font-style="normal" font-weight="bold" text-decoration="none" x="879.134033203125" y="640.5">CPU</text></g></g><g transform="translate(-70,-22) scale(1,1)"><path fill="none" stroke="#000000" d="M 827 468 L 827 636 L 832 636" stroke-miterlimit="10"/></g><g transform="translate(-70,-22) scale(1,1)"><path fill="#000000" stroke="none" d="M 831.209517756016 478.16267485762415 L 827 468 L 822.790482243984 478.16267485762415 L 827 490"/></g><g transform="translate(-70,-22) scale(1,1)"><path fill="none" stroke="#000000" d="M 831.209517756016 478.16267485762415 L 827 468 L 822.790482243984 478.16267485762415 L 827 490 L 831.209517756016 478.16267485762415" stroke-miterlimit="10"/></g><g transform="translate(-70,-22) scale(1,1)"><g><path fill="none" stroke="none"/><text fill="#000000" stroke="none" font-family="Arial" font-size="13px" font-style="normal" font-weight="normal" text-decoration="none" x="811" y="496">1</text></g></g><g transform="translate(-70,-22) scale(1,1)"><g><path fill="none" stroke="none"/><text fill="#000000" stroke="none" font-family="Arial" font-size="13px" font-style="normal" font-weight="normal" text-decoration="none" x="808" y="655">*</text></g></g><g transform="translate(-70,-22) scale(1,1)"><rect fill="#C0C0C0" stroke="none" x="663" y="327" width="104" height="57" opacity="0.2"/></g><g transform="translate(-70,-22) scale(1,1)"><rect fill="#ffffff" stroke="none" x="656" y="320" width="104" height="57"/></g><g transform="translate(-70,-22) scale(1,1)"><path fill="none" stroke="#000000" d="M 656 320 L 760 320 L 760 377 L 656 377 L 656 320 Z Z" stroke-miterlimit="10"/></g><g transform="translate(-70,-22) scale(1,1)"><path fill="none" stroke="#000000" d="M 656 358 L 760 358" stroke-miterlimit="10"/></g><g transform="translate(-70,-22) scale(1,1)"><path fill="none" stroke="#000000" d="M 656 368 L 760 368" stroke-miterlimit="10"/></g><g transform="translate(-70,-22) scale(1,1)"><g><path fill="none" stroke="none"/><text fill="#000000" stroke="none" font-family="Arial" font-size="13px" font-style="normal" font-weight="bold" text-decoration="none" x="663.9345703125" y="339.5">IBM Tivoli Data</text><text fill="#000000" stroke="none" font-family="Arial" font-size="13px" font-style="normal" font-weight="bold" text-decoration="none" x="674.760498046875" y="352.5">Warehouse</text></g></g><g transform="translate(-70,-22) scale(1,1)"><path fill="none" stroke="#000000" d="M 683 454 L 750 454 L 750 377" stroke-miterlimit="10"/></g><g transform="translate(-70,-22) scale(1,1)"><path fill="none" stroke="#000000" d="M 754.209517756016 387.16267485762415 L 750 377 L 745.790482243984 387.16267485762415" stroke-miterlimit="10"/></g><g transform="translate(-70,-22) scale(1,1)"><path fill="#C0C0C0" stroke="none" d="M 146.456787109375 74.5 C 146.456787109375 68.1487248 151.605511909375 63 157.956787109375 63 C 164.308062309375 63 169.456787109375 68.1487248 169.456787109375 74.5 C 169.456787109375 80.8512752 164.308062309375 86 157.956787109375 86 C 151.605511909375 86 146.456787109375 80.8512752 146.456787109375 74.5 Z" opacity="0.2"/></g><g transform="translate(-70,-22) scale(1,1)"><path fill="#ffffff" stroke="none" d="M 139.456787109375 67.5 C 139.456787109375 61.1487248 144.605511909375 56 150.956787109375 56 C 157.308062309375 56 162.456787109375 61.1487248 162.456787109375 67.5 C 162.456787109375 73.8512752 157.308062309375 79 150.956787109375 79 C 144.605511909375 79 139.456787109375 73.8512752 139.456787109375 67.5 Z"/></g><g transform="translate(-70,-22) scale(1,1)"><path fill="none" stroke="#000000" d="M 139.456787109375 67.5 C 139.456787109375 61.1487248 144.605511909375 56 150.956787109375 56 C 157.308062309375 56 162.456787109375 61.1487248 162.456787109375 67.5 C 162.456787109375 73.8512752 157.308062309375 79 150.956787109375 79 C 144.605511909375 79 139.456787109375 73.8512752 139.456787109375 67.5 Z" stroke-miterlimit="10"/></g><g transform="translate(-70,-22) scale(1,1)"><g><path fill="none" stroke="none"/><text fill="#000000" stroke="none" font-family="Arial" font-size="13px" font-style="normal" font-weight="bold" text-decoration="none" x="106.155029296875" y="98.5">IBM BluePages</text><text fill="#000000" stroke="none" font-family="Arial" font-size="13px" font-style="normal" font-weight="bold" text-decoration="none" x="133.976806640625" y="111.5">LDAP</text></g></g><g transform="translate(-70,-22) scale(1,1)"><rect fill="#C0C0C0" stroke="none" x="927" y="247" width="70.3818359375" height="44" opacity="0.2"/></g><g transform="translate(-70,-22) scale(1,1)"><rect fill="#ffffff" stroke="none" x="920" y="240" width="70.3818359375" height="44"/></g><g transform="translate(-70,-22) scale(1,1)"><path fill="none" stroke="#000000" d="M 920 240 L 990.3818359375 240 L 990.3818359375 284 L 920 284 L 920 240 Z Z" stroke-miterlimit="10"/></g><g transform="translate(-70,-22) scale(1,1)"><path fill="none" stroke="#000000" d="M 920 265 L 990.3818359375 265" stroke-miterlimit="10"/></g><g transform="translate(-70,-22) scale(1,1)"><path fill="none" stroke="#000000" d="M 920 275 L 990.3818359375 275" stroke-miterlimit="10"/></g><g transform="translate(-70,-22) scale(1,1)"><g><path fill="none" stroke="none"/><text fill="#000000" stroke="none" font-family="Arial" font-size="13px" font-style="normal" font-weight="bold" text-decoration="none" x="927.00732421875" y="259.5">Reporting</text></g></g><g transform="translate(-70,-22) scale(1,1)"><path fill="none" stroke="#000000" d="M 902 221 L 925 239" stroke-miterlimit="10"/></g><g transform="translate(-70,-22) scale(1,1)"><path fill="#000000" stroke="none" d="M 912.5975178446222 223.94832419060612 L 902 221 L 907.4087967033639 230.57835675999175 L 919.3251100221669 234.55878175647842"/></g><g transform="translate(-70,-22) scale(1,1)"><path fill="none" stroke="#000000" d="M 912.5975178446222 223.94832419060612 L 902 221 L 907.4087967033639 230.57835675999175 L 919.3251100221669 234.55878175647842 L 912.5975178446222 223.94832419060612" stroke-miterlimit="10"/></g><g transform="translate(-70,-22) scale(1,1)"><rect fill="#C0C0C0" stroke="none" x="799" y="311" width="195.38623046875" height="57" opacity="0.2"/></g><g transform="translate(-70,-22) scale(1,1)"><rect fill="#ffffff" stroke="none" x="792" y="304" width="195.38623046875" height="57"/></g><g transform="translate(-70,-22) scale(1,1)"><path fill="none" stroke="#000000" d="M 792 304 L 987.38623046875 304 L 987.38623046875 361 L 792 361 L 792 304 Z Z" stroke-miterlimit="10"/></g><g transform="translate(-70,-22) scale(1,1)"><path fill="none" stroke="#000000" d="M 792 342 L 987.38623046875 342" stroke-miterlimit="10"/></g><g transform="translate(-70,-22) scale(1,1)"><path fill="none" stroke="#000000" d="M 792 352 L 987.38623046875 352" stroke-miterlimit="10"/></g><g transform="translate(-70,-22) scale(1,1)"><g><path fill="none" stroke="none"/><text fill="#000000" stroke="none" font-family="Arial" font-size="13px" font-style="normal" font-weight="bold" text-decoration="none" x="837.299560546875" y="323.5">Capacity Planning</text><text fill="#000000" stroke="none" font-family="Arial" font-size="13px" font-style="normal" font-weight="bold" text-decoration="none" x="857.5390625" y="336.5">Processing</text></g></g><g transform="translate(-70,-22) scale(1,1)"><path fill="none" stroke="#000000" d="M 875 221 L 885 303" stroke-miterlimit="10"/></g><g transform="translate(-70,-22) scale(1,1)"><path fill="#000000" stroke="none" d="M 880.4087967033639 230.57835675999175 L 875 221 L 872.0516758093939 231.59751784462225 L 877.6631962568429 242.83820930611157"/></g><g transform="translate(-70,-22) scale(1,1)"><path fill="none" stroke="#000000" d="M 880.4087967033639 230.57835675999175 L 875 221 L 872.0516758093939 231.59751784462225 L 877.6631962568429 242.83820930611157 L 880.4087967033639 230.57835675999175" stroke-miterlimit="10"/></g><g transform="translate(-70,-22) scale(1,1)"><rect fill="#C0C0C0" stroke="none" x="615" y="239" width="240.8671875" height="57" opacity="0.2"/></g><g transform="translate(-70,-22) scale(1,1)"><rect fill="#ffffff" stroke="none" x="608" y="232" width="240.8671875" height="57"/></g><g transform="translate(-70,-22) scale(1,1)"><path fill="none" stroke="#000000" d="M 608 232 L 848.8671875 232 L 848.8671875 289 L 608 289 L 608 232 Z Z" stroke-miterlimit="10"/></g><g transform="translate(-70,-22) scale(1,1)"><path fill="none" stroke="#000000" d="M 608 270 L 848.8671875 270" stroke-miterlimit="10"/></g><g transform="translate(-70,-22) scale(1,1)"><path fill="none" stroke="#000000" d="M 608 280 L 848.8671875 280" stroke-miterlimit="10"/></g><g transform="translate(-70,-22) scale(1,1)"><g><path fill="none" stroke="none"/><text fill="#000000" stroke="none" font-family="Arial" font-size="13px" font-style="normal" font-weight="bold" text-decoration="none" x="647.497802734375" y="251.5">Tivoi Usage and Accounting</text><text fill="#000000" stroke="none" font-family="Arial" font-size="13px" font-style="normal" font-weight="bold" text-decoration="none" x="702.779541015625" y="264.5">Manager</text></g></g><g transform="translate(-70,-22) scale(1,1)"><path fill="none" stroke="#000000" d="M 831 216 L 795 231" stroke-miterlimit="10"/></g><g transform="translate(-70,-22) scale(1,1)"><path fill="#000000" stroke="none" d="M 823.2381146529684 223.79442979694713 L 831 216 L 820.0000240714177 216.02301240122532 L 810.6923076923077 224.46153846153848"/></g><g transform="translate(-70,-22) scale(1,1)"><path fill="none" stroke="#000000" d="M 823.2381146529684 223.79442979694713 L 831 216 L 820.0000240714177 216.02301240122532 L 810.6923076923077 224.46153846153848 L 823.2381146529684 223.79442979694713" stroke-miterlimit="10"/></g><g transform="translate(-70,-22) scale(1,1)"><path fill="none" stroke="#000000" d="M 223 89 L 327 93" stroke-miterlimit="10"/></g><g transform="translate(-70,-22) scale(1,1)"><path fill="none" stroke="#000000" d="M 316.68304867447023 96.81582433383001 L 327 93 L 317.0066184942785 88.40300901881419" stroke-miterlimit="10"/></g><g transform="translate(-70,-22) scale(1,1)"><g><path fill="none" stroke="none"/><text fill="#000000" stroke="none" font-family="Arial" font-size="13px" font-style="normal" font-weight="normal" text-decoration="none" x="210" y="82">+authenticate</text></g></g></g></svg>